<mxfile host="app.diagrams.net" modified="2023-08-16T20:39:18.538Z" agent="Mozilla/5.0 (Windows NT 10.0; Win64; x64) AppleWebKit/537.36 (KHTML, like Gecko) Chrome/115.0.0.0 Safari/537.36" etag="oD-yF_X6DbZlpGGElu-0" version="21.6.8" type="github">
  <diagram id="C5RBs43oDa-KdzZeNtuy" name="Page-1">
    <mxGraphModel dx="875" dy="483" grid="1" gridSize="10" guides="1" tooltips="1" connect="1" arrows="1" fold="1" page="1" pageScale="1" pageWidth="827" pageHeight="1169" math="0" shadow="0">
      <root>
        <mxCell id="WIyWlLk6GJQsqaUBKTNV-0" />
        <mxCell id="WIyWlLk6GJQsqaUBKTNV-1" parent="WIyWlLk6GJQsqaUBKTNV-0" />
        <mxCell id="WIyWlLk6GJQsqaUBKTNV-2" value="" style="rounded=0;html=1;jettySize=auto;orthogonalLoop=1;fontSize=11;endArrow=block;endFill=0;endSize=8;strokeWidth=1;shadow=0;labelBackgroundColor=none;edgeStyle=orthogonalEdgeStyle;" parent="WIyWlLk6GJQsqaUBKTNV-1" source="WIyWlLk6GJQsqaUBKTNV-3" target="WIyWlLk6GJQsqaUBKTNV-6" edge="1">
          <mxGeometry relative="1" as="geometry" />
        </mxCell>
        <mxCell id="WIyWlLk6GJQsqaUBKTNV-3" value="I Have an issue" style="rounded=1;whiteSpace=wrap;html=1;fontSize=12;glass=0;strokeWidth=1;shadow=0;" parent="WIyWlLk6GJQsqaUBKTNV-1" vertex="1">
          <mxGeometry x="167.5" y="80" width="120" height="40" as="geometry" />
        </mxCell>
        <mxCell id="VwTX3nOfph4eVQ38K2cx-6" value="no" style="edgeStyle=orthogonalEdgeStyle;rounded=0;orthogonalLoop=1;jettySize=auto;html=1;" edge="1" parent="WIyWlLk6GJQsqaUBKTNV-1" source="WIyWlLk6GJQsqaUBKTNV-6" target="VwTX3nOfph4eVQ38K2cx-5">
          <mxGeometry relative="1" as="geometry">
            <mxPoint as="offset" />
          </mxGeometry>
        </mxCell>
        <mxCell id="VwTX3nOfph4eVQ38K2cx-51" value="yes" style="edgeStyle=orthogonalEdgeStyle;rounded=0;orthogonalLoop=1;jettySize=auto;html=1;" edge="1" parent="WIyWlLk6GJQsqaUBKTNV-1" source="WIyWlLk6GJQsqaUBKTNV-6" target="VwTX3nOfph4eVQ38K2cx-50">
          <mxGeometry relative="1" as="geometry" />
        </mxCell>
        <mxCell id="WIyWlLk6GJQsqaUBKTNV-6" value="Are all your mods updated?" style="rhombus;whiteSpace=wrap;html=1;shadow=0;fontFamily=Helvetica;fontSize=12;align=center;strokeWidth=1;spacing=6;spacingTop=-4;" parent="WIyWlLk6GJQsqaUBKTNV-1" vertex="1">
          <mxGeometry x="165" y="165" width="125" height="120" as="geometry" />
        </mxCell>
        <mxCell id="VwTX3nOfph4eVQ38K2cx-48" value="no" style="edgeStyle=orthogonalEdgeStyle;rounded=0;orthogonalLoop=1;jettySize=auto;html=1;exitX=0.5;exitY=1;exitDx=0;exitDy=0;entryX=0.5;entryY=0;entryDx=0;entryDy=0;" edge="1" parent="WIyWlLk6GJQsqaUBKTNV-1" source="WIyWlLk6GJQsqaUBKTNV-10" target="WIyWlLk6GJQsqaUBKTNV-11">
          <mxGeometry relative="1" as="geometry" />
        </mxCell>
        <mxCell id="VwTX3nOfph4eVQ38K2cx-54" value="yes" style="edgeStyle=orthogonalEdgeStyle;rounded=0;orthogonalLoop=1;jettySize=auto;html=1;" edge="1" parent="WIyWlLk6GJQsqaUBKTNV-1" source="WIyWlLk6GJQsqaUBKTNV-10" target="VwTX3nOfph4eVQ38K2cx-50">
          <mxGeometry relative="1" as="geometry" />
        </mxCell>
        <mxCell id="WIyWlLk6GJQsqaUBKTNV-10" value="still have an issue?" style="rhombus;whiteSpace=wrap;html=1;shadow=0;fontFamily=Helvetica;fontSize=12;align=center;strokeWidth=1;spacing=6;spacingTop=-4;" parent="WIyWlLk6GJQsqaUBKTNV-1" vertex="1">
          <mxGeometry x="25" y="332.5" width="100" height="102.5" as="geometry" />
        </mxCell>
        <mxCell id="WIyWlLk6GJQsqaUBKTNV-11" value="You are good!" style="rounded=1;whiteSpace=wrap;html=1;fontSize=12;glass=0;strokeWidth=1;shadow=0;" parent="WIyWlLk6GJQsqaUBKTNV-1" vertex="1">
          <mxGeometry x="15" y="550" width="120" height="40" as="geometry" />
        </mxCell>
        <mxCell id="VwTX3nOfph4eVQ38K2cx-16" value="no" style="edgeStyle=orthogonalEdgeStyle;rounded=0;orthogonalLoop=1;jettySize=auto;html=1;" edge="1" parent="WIyWlLk6GJQsqaUBKTNV-1" source="VwTX3nOfph4eVQ38K2cx-0" target="VwTX3nOfph4eVQ38K2cx-15">
          <mxGeometry x="-0.1429" relative="1" as="geometry">
            <mxPoint y="1" as="offset" />
          </mxGeometry>
        </mxCell>
        <mxCell id="VwTX3nOfph4eVQ38K2cx-20" value="" style="edgeStyle=orthogonalEdgeStyle;rounded=0;orthogonalLoop=1;jettySize=auto;html=1;" edge="1" parent="WIyWlLk6GJQsqaUBKTNV-1" source="VwTX3nOfph4eVQ38K2cx-0" target="VwTX3nOfph4eVQ38K2cx-19">
          <mxGeometry relative="1" as="geometry" />
        </mxCell>
        <mxCell id="VwTX3nOfph4eVQ38K2cx-0" value="do you need it?" style="rhombus;whiteSpace=wrap;html=1;" vertex="1" parent="WIyWlLk6GJQsqaUBKTNV-1">
          <mxGeometry x="490" y="172.5" width="110" height="105" as="geometry" />
        </mxCell>
        <mxCell id="VwTX3nOfph4eVQ38K2cx-10" value="" style="edgeStyle=orthogonalEdgeStyle;rounded=0;orthogonalLoop=1;jettySize=auto;html=1;" edge="1" parent="WIyWlLk6GJQsqaUBKTNV-1" source="VwTX3nOfph4eVQ38K2cx-5" target="WIyWlLk6GJQsqaUBKTNV-10">
          <mxGeometry relative="1" as="geometry" />
        </mxCell>
        <mxCell id="VwTX3nOfph4eVQ38K2cx-5" value="update them" style="rounded=1;whiteSpace=wrap;html=1;fontSize=12;glass=0;strokeWidth=1;shadow=0;" vertex="1" parent="WIyWlLk6GJQsqaUBKTNV-1">
          <mxGeometry x="30" y="205" width="90" height="40" as="geometry" />
        </mxCell>
        <mxCell id="VwTX3nOfph4eVQ38K2cx-59" value="yes" style="edgeStyle=orthogonalEdgeStyle;rounded=0;orthogonalLoop=1;jettySize=auto;html=1;exitX=0.5;exitY=0;exitDx=0;exitDy=0;entryX=0;entryY=0.5;entryDx=0;entryDy=0;" edge="1" parent="WIyWlLk6GJQsqaUBKTNV-1" source="VwTX3nOfph4eVQ38K2cx-11" target="VwTX3nOfph4eVQ38K2cx-0">
          <mxGeometry x="-0.7674" relative="1" as="geometry">
            <mxPoint as="offset" />
          </mxGeometry>
        </mxCell>
        <mxCell id="VwTX3nOfph4eVQ38K2cx-11" value="do you have Optifine?" style="rhombus;whiteSpace=wrap;html=1;" vertex="1" parent="WIyWlLk6GJQsqaUBKTNV-1">
          <mxGeometry x="335" y="340" width="96" height="90" as="geometry" />
        </mxCell>
        <mxCell id="VwTX3nOfph4eVQ38K2cx-26" value="" style="edgeStyle=orthogonalEdgeStyle;rounded=0;orthogonalLoop=1;jettySize=auto;html=1;" edge="1" parent="WIyWlLk6GJQsqaUBKTNV-1" source="VwTX3nOfph4eVQ38K2cx-15" target="VwTX3nOfph4eVQ38K2cx-25">
          <mxGeometry relative="1" as="geometry" />
        </mxCell>
        <mxCell id="VwTX3nOfph4eVQ38K2cx-15" value="uninstall Optifine" style="rounded=1;whiteSpace=wrap;html=1;" vertex="1" parent="WIyWlLk6GJQsqaUBKTNV-1">
          <mxGeometry x="485" y="330" width="120" height="60" as="geometry" />
        </mxCell>
        <mxCell id="VwTX3nOfph4eVQ38K2cx-22" style="edgeStyle=orthogonalEdgeStyle;rounded=0;orthogonalLoop=1;jettySize=auto;html=1;exitX=0.5;exitY=1;exitDx=0;exitDy=0;entryX=1;entryY=0.5;entryDx=0;entryDy=0;" edge="1" parent="WIyWlLk6GJQsqaUBKTNV-1" source="VwTX3nOfph4eVQ38K2cx-19" target="VwTX3nOfph4eVQ38K2cx-15">
          <mxGeometry relative="1" as="geometry" />
        </mxCell>
        <mxCell id="VwTX3nOfph4eVQ38K2cx-19" value="No you dont" style="rounded=1;whiteSpace=wrap;html=1;" vertex="1" parent="WIyWlLk6GJQsqaUBKTNV-1">
          <mxGeometry x="640" y="200" width="75" height="50" as="geometry" />
        </mxCell>
        <mxCell id="VwTX3nOfph4eVQ38K2cx-28" value="no" style="edgeStyle=orthogonalEdgeStyle;rounded=0;orthogonalLoop=1;jettySize=auto;html=1;exitX=0;exitY=0.5;exitDx=0;exitDy=0;entryX=1;entryY=0.5;entryDx=0;entryDy=0;" edge="1" parent="WIyWlLk6GJQsqaUBKTNV-1" source="VwTX3nOfph4eVQ38K2cx-25" target="WIyWlLk6GJQsqaUBKTNV-11">
          <mxGeometry x="-0.873" relative="1" as="geometry">
            <Array as="points">
              <mxPoint x="330" y="495" />
              <mxPoint x="330" y="600" />
            </Array>
            <mxPoint as="offset" />
          </mxGeometry>
        </mxCell>
        <mxCell id="VwTX3nOfph4eVQ38K2cx-33" value="" style="edgeStyle=orthogonalEdgeStyle;rounded=0;orthogonalLoop=1;jettySize=auto;html=1;" edge="1" parent="WIyWlLk6GJQsqaUBKTNV-1" source="VwTX3nOfph4eVQ38K2cx-25" target="VwTX3nOfph4eVQ38K2cx-32">
          <mxGeometry relative="1" as="geometry" />
        </mxCell>
        <mxCell id="VwTX3nOfph4eVQ38K2cx-25" value="still have an issue?" style="rhombus;whiteSpace=wrap;html=1;shadow=0;fontFamily=Helvetica;fontSize=12;align=center;strokeWidth=1;spacing=6;spacingTop=-4;" vertex="1" parent="WIyWlLk6GJQsqaUBKTNV-1">
          <mxGeometry x="490" y="440" width="110" height="110" as="geometry" />
        </mxCell>
        <mxCell id="VwTX3nOfph4eVQ38K2cx-36" value="yes" style="edgeStyle=orthogonalEdgeStyle;rounded=0;orthogonalLoop=1;jettySize=auto;html=1;" edge="1" parent="WIyWlLk6GJQsqaUBKTNV-1" source="VwTX3nOfph4eVQ38K2cx-32" target="VwTX3nOfph4eVQ38K2cx-34">
          <mxGeometry x="-0.1111" relative="1" as="geometry">
            <mxPoint as="offset" />
          </mxGeometry>
        </mxCell>
        <mxCell id="VwTX3nOfph4eVQ38K2cx-43" value="no" style="edgeStyle=orthogonalEdgeStyle;rounded=0;orthogonalLoop=1;jettySize=auto;html=1;" edge="1" parent="WIyWlLk6GJQsqaUBKTNV-1" source="VwTX3nOfph4eVQ38K2cx-32" target="VwTX3nOfph4eVQ38K2cx-41">
          <mxGeometry x="-0.3333" relative="1" as="geometry">
            <mxPoint as="offset" />
          </mxGeometry>
        </mxCell>
        <mxCell id="VwTX3nOfph4eVQ38K2cx-32" value="do you have Sodium?" style="rhombus;whiteSpace=wrap;html=1;shadow=0;fontFamily=Helvetica;fontSize=12;align=center;strokeWidth=1;spacing=6;spacingTop=-4;" vertex="1" parent="WIyWlLk6GJQsqaUBKTNV-1">
          <mxGeometry x="490" y="610" width="110" height="110" as="geometry" />
        </mxCell>
        <mxCell id="VwTX3nOfph4eVQ38K2cx-42" value="yes" style="edgeStyle=orthogonalEdgeStyle;rounded=0;orthogonalLoop=1;jettySize=auto;html=1;" edge="1" parent="WIyWlLk6GJQsqaUBKTNV-1" source="VwTX3nOfph4eVQ38K2cx-34" target="VwTX3nOfph4eVQ38K2cx-41">
          <mxGeometry x="-0.907" relative="1" as="geometry">
            <Array as="points">
              <mxPoint x="390" y="750" />
              <mxPoint x="545" y="750" />
            </Array>
            <mxPoint as="offset" />
          </mxGeometry>
        </mxCell>
        <mxCell id="VwTX3nOfph4eVQ38K2cx-44" value="no" style="edgeStyle=orthogonalEdgeStyle;rounded=0;orthogonalLoop=1;jettySize=auto;html=1;exitX=0;exitY=0.5;exitDx=0;exitDy=0;entryX=0.5;entryY=0;entryDx=0;entryDy=0;" edge="1" parent="WIyWlLk6GJQsqaUBKTNV-1" source="VwTX3nOfph4eVQ38K2cx-34" target="VwTX3nOfph4eVQ38K2cx-37">
          <mxGeometry relative="1" as="geometry" />
        </mxCell>
        <mxCell id="VwTX3nOfph4eVQ38K2cx-34" value="do you have Indium?" style="rhombus;whiteSpace=wrap;html=1;shadow=0;fontFamily=Helvetica;fontSize=12;align=center;strokeWidth=1;spacing=6;spacingTop=-4;" vertex="1" parent="WIyWlLk6GJQsqaUBKTNV-1">
          <mxGeometry x="335" y="610" width="110" height="110" as="geometry" />
        </mxCell>
        <mxCell id="VwTX3nOfph4eVQ38K2cx-47" style="edgeStyle=orthogonalEdgeStyle;rounded=0;orthogonalLoop=1;jettySize=auto;html=1;exitX=1;exitY=0.5;exitDx=0;exitDy=0;entryX=0.5;entryY=0;entryDx=0;entryDy=0;" edge="1" parent="WIyWlLk6GJQsqaUBKTNV-1" source="VwTX3nOfph4eVQ38K2cx-37" target="VwTX3nOfph4eVQ38K2cx-41">
          <mxGeometry relative="1" as="geometry" />
        </mxCell>
        <mxCell id="VwTX3nOfph4eVQ38K2cx-37" value="install it" style="rounded=1;whiteSpace=wrap;html=1;shadow=0;strokeWidth=1;spacing=6;spacingTop=-4;" vertex="1" parent="WIyWlLk6GJQsqaUBKTNV-1">
          <mxGeometry x="275" y="730" width="75" height="40" as="geometry" />
        </mxCell>
        <mxCell id="VwTX3nOfph4eVQ38K2cx-41" value="do you have Indium?" style="rhombus;whiteSpace=wrap;html=1;shadow=0;fontFamily=Helvetica;fontSize=12;align=center;strokeWidth=1;spacing=6;spacingTop=-4;" vertex="1" parent="WIyWlLk6GJQsqaUBKTNV-1">
          <mxGeometry x="490" y="780" width="110" height="110" as="geometry" />
        </mxCell>
        <mxCell id="VwTX3nOfph4eVQ38K2cx-58" value="yes" style="edgeStyle=orthogonalEdgeStyle;rounded=0;orthogonalLoop=1;jettySize=auto;html=1;" edge="1" parent="WIyWlLk6GJQsqaUBKTNV-1" source="VwTX3nOfph4eVQ38K2cx-50" target="VwTX3nOfph4eVQ38K2cx-11">
          <mxGeometry x="0.1429" relative="1" as="geometry">
            <mxPoint as="offset" />
          </mxGeometry>
        </mxCell>
        <mxCell id="VwTX3nOfph4eVQ38K2cx-50" value="does it crash?" style="rhombus;whiteSpace=wrap;html=1;shadow=0;fontFamily=Helvetica;fontSize=12;align=center;strokeWidth=1;spacing=6;spacingTop=-4;" vertex="1" parent="WIyWlLk6GJQsqaUBKTNV-1">
          <mxGeometry x="175" y="335" width="105" height="100" as="geometry" />
        </mxCell>
      </root>
    </mxGraphModel>
  </diagram>
</mxfile>
